<svg width="1920" height="1005" viewBox="0 0 1920 1005" fill="none" xmlns="http://www.w3.org/2000/svg">
<g clip-path="url(#clip0_216_17020)">
<path d="M1276.48 1226.21L1405.77 1003.35L955.559 744.674L826.264 967.536L1276.48 1226.21ZM1413.4 974.944C1299.72 909.046 1261.09 763.509 1327.1 649.934L1331.06 643.223L1543.32 765.15L1419.58 978.467L1414.31 975.431C1414.02 975.301 1413.71 975.122 1413.4 974.944Z" fill="#E04747"/>
<path d="M1591.83 195.473L1796.7 313.368L1557.94 725.563L1353.07 607.668L1591.83 195.473ZM1815.78 332.458C1755.76 437.001 1791.85 570.441 1896.36 630.468L1902.58 633.987L2015.15 439.677L1819.06 326.777L1816.28 331.606C1816.11 331.89 1815.95 332.174 1815.78 332.458Z" fill="#4536DA"/>
</g>
<defs>
<clipPath id="clip0_216_17020">
<rect width="1920" height="1005" fill="white"/>
</clipPath>
</defs>
</svg>
