<svg width="375" height="1005" viewBox="0 0 375 1005" fill="none" xmlns="http://www.w3.org/2000/svg">
<g clip-path="url(#clip0_276_17241)">
<path d="M60.0951 977.224L120.14 873.728L-88.9387 753.598L-148.983 857.095L60.0951 977.224ZM123.68 860.535C70.887 829.932 52.9472 762.345 83.6023 709.601L85.4419 706.485L184.013 763.107L126.55 862.171L124.106 860.761C123.968 860.701 123.824 860.618 123.68 860.535Z" fill="#E04747"/>
<path d="M206.543 498.551L301.684 553.301L190.807 744.723L95.6655 689.973L206.543 498.551ZM310.547 562.166C282.673 610.716 299.434 672.685 347.964 700.561L350.854 702.196L403.134 611.958L312.069 559.528L310.775 561.771C310.699 561.903 310.623 562.035 310.547 562.166Z" fill="#4536DA"/>
</g>
<defs>
<clipPath id="clip0_276_17241">
<rect width="375" height="1005" fill="white"/>
</clipPath>
</defs>
</svg>
